<svg width="600" height="371" aria-label="A chart." style="overflow: hidden;"><defs id="defs"><clipPath id="_ABSTRACT_RENDERER_ID_2283"><rect x="115" y="71" width="371" height="229"></rect></clipPath></defs><rect x="0" y="0" width="600" height="371" stroke="none" stroke-width="0" fill="#ffffff"></rect><g><text text-anchor="start" x="115" y="49.6" font-family="Arial" font-size="16" font-weight="bold" stroke="none" stroke-width="0" fill="#000000">Request by Resource</text><rect x="115" y="36" width="371" height="16" stroke="none" stroke-width="0" fill-opacity="0" fill="#ffffff"></rect></g><g><rect x="498" y="71" width="90" height="50" stroke="none" stroke-width="0" fill-opacity="0" fill="#ffffff"></rect><g><rect x="498" y="71" width="90" height="12" stroke="none" stroke-width="0" fill-opacity="0" fill="#ffffff"></rect><g><text text-anchor="start" x="527" y="81.2" font-family="Arial" font-size="12" stroke="none" stroke-width="0" fill="#222222">Origin txt</text></g><rect x="498" y="77" width="24" height="6" stroke="none" stroke-width="0" fill-opacity="0.3" fill="#ff9900"></rect><path d="M498,77L522,77" stroke="#ff9900" stroke-width="2" fill-opacity="1" fill="none"></path></g><g><rect x="498" y="90" width="90" height="12" stroke="none" stroke-width="0" fill-opacity="0" fill="#ffffff"></rect><g><text text-anchor="start" x="527" y="100.2" font-family="Arial" font-size="12" stroke="none" stroke-width="0" fill="#222222">Origin img</text></g><rect x="498" y="96" width="24" height="6" stroke="none" stroke-width="0" fill-opacity="0.3" fill="#dc3912"></rect><path d="M498,96L522,96" stroke="#dc3912" stroke-width="2" fill-opacity="1" fill="none"></path></g><g><rect x="498" y="109" width="90" height="12" stroke="none" stroke-width="0" fill-opacity="0" fill="#ffffff"></rect><g><text text-anchor="start" x="527" y="119.2" font-family="Arial" font-size="12" stroke="none" stroke-width="0" fill="#222222">Origin html</text></g><rect x="498" y="115" width="24" height="6" stroke="none" stroke-width="0" fill-opacity="0.3" fill="#3366cc"></rect><path d="M498,115L522,115" stroke="#3366cc" stroke-width="2" fill-opacity="1" fill="none"></path></g></g><g><rect x="115" y="71" width="371" height="229" stroke="none" stroke-width="0" fill-opacity="0" fill="#ffffff"></rect><g clip-path="url(https://docs.google.com/spreadsheets/d/1Eui5Tnm4ocvZuZmb4M2l9ocoyMkLClB5yz-O0-4t5ts/edit#_ABSTRACT_RENDERER_ID_2283)"><g><rect x="115" y="299" width="371" height="1" stroke="none" stroke-width="0" fill="#cccccc"></rect><rect x="115" y="242" width="371" height="1" stroke="none" stroke-width="0" fill="#cccccc"></rect><rect x="115" y="185" width="371" height="1" stroke="none" stroke-width="0" fill="#cccccc"></rect><rect x="115" y="128" width="371" height="1" stroke="none" stroke-width="0" fill="#cccccc"></rect><rect x="115" y="71" width="371" height="1" stroke="none" stroke-width="0" fill="#cccccc"></rect></g><g><g><path d="M115.5,299.5L115.5,299.5L115.5,294.94L138.625,294.94L161.75,294.94L184.875,294.94L208,294.94L231.125,294.94L254.25,294.94L277.375,294.94L300.5,294.94L323.625,294.94L346.75,292.66L369.875,292.66L393,292.66L416.125,283.54L439.25,285.82L462.375,285.82L485.5,285.82L485.5,299.5L485.5,299.5L462.375,299.5L439.25,299.5L416.125,299.5L393,299.5L369.875,299.5L346.75,299.5L323.625,299.5L300.5,299.5L277.375,299.5L254.25,299.5L231.125,299.5L208,299.5L184.875,299.5L161.75,299.5L138.625,299.5L115.5,299.5" stroke="none" stroke-width="0" fill-opacity="0.3" fill="#3366cc"></path></g><g><path d="M115.5,299.5L115.5,299.5L115.5,281.26L138.625,281.26L161.75,281.26L184.875,281.26L208,281.26L231.125,281.26L254.25,281.26L277.375,278.98L300.5,278.98L323.625,278.98L346.75,278.98L369.875,276.7L393,276.7L416.125,231.10000000000002L439.25,235.66L462.375,249.34L485.5,224.26L485.5,299.5L485.5,299.5L485.5,285.82L462.375,285.82L439.25,285.82L416.125,283.54L393,292.66L369.875,292.66L346.75,292.66L323.625,294.94L300.5,294.94L277.375,294.94L254.25,294.94L231.125,294.94L208,294.94L184.875,294.94L161.75,294.94L138.625,294.94L115.5,294.94L115.5,299.5" stroke="none" stroke-width="0" fill-opacity="0.3" fill="#dc3912"></path></g><g><path d="M115.5,299.5L115.5,299.5L115.5,247.06L138.625,247.06L161.75,247.06L184.875,247.06L208,247.06L231.125,247.06L254.25,247.06L277.375,242.5L300.5,240.22L323.625,235.66L346.75,233.38L369.875,226.54000000000002L393,226.54000000000002L416.125,137.62L439.25,123.94000000000003L462.375,133.06L485.5,142.18L485.5,299.5L485.5,299.5L485.5,224.26L462.375,249.34L439.25,235.66L416.125,231.10000000000002L393,276.7L369.875,276.7L346.75,278.98L323.625,278.98L300.5,278.98L277.375,278.98L254.25,281.26L231.125,281.26L208,281.26L184.875,281.26L161.75,281.26L138.625,281.26L115.5,281.26L115.5,299.5" stroke="none" stroke-width="0" fill-opacity="0.3" fill="#ff9900"></path></g></g><g><rect x="115" y="299" width="371" height="1" stroke="none" stroke-width="0" fill="#333333"></rect></g><g><path d="M115.5,294.94L138.625,294.94L161.75,294.94L184.875,294.94L208,294.94L231.125,294.94L254.25,294.94L277.375,294.94L300.5,294.94L323.625,294.94L346.75,292.66L369.875,292.66L393,292.66L416.125,283.54L439.25,285.82L462.375,285.82L485.5,285.82" stroke="#3366cc" stroke-width="2" fill-opacity="1" fill="none"></path><path d="M115.5,281.26L138.625,281.26L161.75,281.26L184.875,281.26L208,281.26L231.125,281.26L254.25,281.26L277.375,278.98L300.5,278.98L323.625,278.98L346.75,278.98L369.875,276.7L393,276.7L416.125,231.10000000000002L439.25,235.66L462.375,249.34L485.5,224.26" stroke="#dc3912" stroke-width="2" fill-opacity="1" fill="none"></path><path d="M115.5,247.06L138.625,247.06L161.75,247.06L184.875,247.06L208,247.06L231.125,247.06L254.25,247.06L277.375,242.5L300.5,240.22L323.625,235.66L346.75,233.38L369.875,226.54000000000002L393,226.54000000000002L416.125,137.62L439.25,123.94000000000003L462.375,133.06L485.5,142.18" stroke="#ff9900" stroke-width="2" fill-opacity="1" fill="none"></path></g></g><g></g><g><g><text text-anchor="end" x="103" y="303.7" font-family="Arial" font-size="12" stroke="none" stroke-width="0" fill="#444444">0</text></g><g><text text-anchor="end" x="103" y="246.7" font-family="Arial" font-size="12" stroke="none" stroke-width="0" fill="#444444">25</text></g><g><text text-anchor="end" x="103" y="189.7" font-family="Arial" font-size="12" stroke="none" stroke-width="0" fill="#444444">50</text></g><g><text text-anchor="end" x="103" y="132.70000000000002" font-family="Arial" font-size="12" stroke="none" stroke-width="0" fill="#444444">75</text></g><g><text text-anchor="end" x="103" y="75.70000000000003" font-family="Arial" font-size="12" stroke="none" stroke-width="0" fill="#444444">100</text></g></g></g><g></g></svg>
