<svg width="600" height="371" aria-label="A chart." style="overflow: hidden;"><defs id="defs"><clipPath id="_ABSTRACT_RENDERER_ID_2540"><rect x="115" y="71" width="371" height="229"></rect></clipPath></defs><rect x="0" y="0" width="600" height="371" stroke="none" stroke-width="0" fill="#ffffff"></rect><g><text text-anchor="start" x="115" y="31.6" font-family="Arial" font-size="16" font-weight="bold" stroke="none" stroke-width="0" fill="#000000">Cache Size and Total Requests</text><rect x="115" y="18" width="371" height="16" stroke="none" stroke-width="0" fill-opacity="0" fill="#ffffff"></rect></g><g><rect x="115" y="41" width="218" height="12" stroke="none" stroke-width="0" fill-opacity="0" fill="#ffffff"></rect><g><rect x="115" y="41" width="91" height="12" stroke="none" stroke-width="0" fill-opacity="0" fill="#ffffff"></rect><g><text text-anchor="start" x="144" y="51.2" font-family="Arial" font-size="12" stroke="none" stroke-width="0" fill="#222222">Cache Size</text></g><rect x="115" y="41" width="24" height="12" stroke="none" stroke-width="0" fill="#3366cc"></rect></g><g><rect x="225" y="41" width="108" height="12" stroke="none" stroke-width="0" fill-opacity="0" fill="#ffffff"></rect><g><text text-anchor="start" x="254" y="51.2" font-family="Arial" font-size="12" stroke="none" stroke-width="0" fill="#222222">Total Requests</text></g><rect x="225" y="41" width="24" height="12" stroke="none" stroke-width="0" fill="#dc3912"></rect></g></g><g><rect x="115" y="71" width="371" height="229" stroke="none" stroke-width="0" fill-opacity="0" fill="#ffffff"></rect><g clip-path="url(https://docs.google.com/spreadsheets/d/1Eui5Tnm4ocvZuZmb4M2l9ocoyMkLClB5yz-O0-4t5ts/edit#_ABSTRACT_RENDERER_ID_2540)"><g><rect x="115" y="299" width="371" height="1" stroke="none" stroke-width="0" fill="#cccccc"></rect><rect x="115" y="242" width="371" height="1" stroke="none" stroke-width="0" fill="#cccccc"></rect><rect x="115" y="185" width="371" height="1" stroke="none" stroke-width="0" fill="#cccccc"></rect><rect x="115" y="128" width="371" height="1" stroke="none" stroke-width="0" fill="#cccccc"></rect><rect x="115" y="71" width="371" height="1" stroke="none" stroke-width="0" fill="#cccccc"></rect></g><g><rect x="120" y="72" width="6" height="227" stroke="none" stroke-width="0" fill="#3366cc"></rect><rect x="141" y="266" width="7" height="33" stroke="none" stroke-width="0" fill="#3366cc"></rect><rect x="163" y="272" width="6" height="27" stroke="none" stroke-width="0" fill="#3366cc"></rect><rect x="185" y="275" width="6" height="24" stroke="none" stroke-width="0" fill="#3366cc"></rect><rect x="207" y="277" width="6" height="22" stroke="none" stroke-width="0" fill="#3366cc"></rect><rect x="228" y="279" width="7" height="20" stroke="none" stroke-width="0" fill="#3366cc"></rect><rect x="250" y="282" width="6" height="17" stroke="none" stroke-width="0" fill="#3366cc"></rect><rect x="272" y="284" width="6" height="15" stroke="none" stroke-width="0" fill="#3366cc"></rect><rect x="294" y="286" width="6" height="13" stroke="none" stroke-width="0" fill="#3366cc"></rect><rect x="316" y="289" width="6" height="10" stroke="none" stroke-width="0" fill="#3366cc"></rect><rect x="337" y="291" width="7" height="8" stroke="none" stroke-width="0" fill="#3366cc"></rect><rect x="359" y="293" width="6" height="6" stroke="none" stroke-width="0" fill="#3366cc"></rect><rect x="381" y="295" width="6" height="4" stroke="none" stroke-width="0" fill="#3366cc"></rect><rect x="403" y="296.764" width="6" height="2.73599999999999" stroke="none" stroke-width="0" fill="#3366cc"></rect><rect x="424" y="297.67600000000004" width="7" height="1.8239999999999554" stroke="none" stroke-width="0" fill="#3366cc"></rect><rect x="446" y="298.588" width="6" height="0.9119999999999777" stroke="none" stroke-width="0" fill="#3366cc"></rect><rect x="468" y="299" width="6" height="0.5" stroke="none" stroke-width="0" fill="#3366cc"></rect><rect x="127" y="274" width="6" height="25" stroke="none" stroke-width="0" fill="#dc3912"></rect><rect x="149" y="274" width="6" height="25" stroke="none" stroke-width="0" fill="#dc3912"></rect><rect x="170" y="274" width="7" height="25" stroke="none" stroke-width="0" fill="#dc3912"></rect><rect x="192" y="274" width="6" height="25" stroke="none" stroke-width="0" fill="#dc3912"></rect><rect x="214" y="274" width="6" height="25" stroke="none" stroke-width="0" fill="#dc3912"></rect><rect x="236" y="274" width="6" height="25" stroke="none" stroke-width="0" fill="#dc3912"></rect><rect x="257" y="274" width="7" height="25" stroke="none" stroke-width="0" fill="#dc3912"></rect><rect x="279" y="272" width="6" height="27" stroke="none" stroke-width="0" fill="#dc3912"></rect><rect x="301" y="270" width="6" height="29" stroke="none" stroke-width="0" fill="#dc3912"></rect><rect x="323" y="268" width="6" height="31" stroke="none" stroke-width="0" fill="#dc3912"></rect><rect x="345" y="267" width="6" height="32" stroke="none" stroke-width="0" fill="#dc3912"></rect><rect x="366" y="264" width="7" height="35" stroke="none" stroke-width="0" fill="#dc3912"></rect><rect x="388" y="264" width="6" height="35" stroke="none" stroke-width="0" fill="#dc3912"></rect><rect x="410" y="219" width="6" height="80" stroke="none" stroke-width="0" fill="#dc3912"></rect><rect x="432" y="212" width="6" height="87" stroke="none" stroke-width="0" fill="#dc3912"></rect><rect x="453" y="217" width="7" height="82" stroke="none" stroke-width="0" fill="#dc3912"></rect><rect x="475" y="221" width="6" height="78" stroke="none" stroke-width="0" fill="#dc3912"></rect></g><g><rect x="115" y="299" width="371" height="1" stroke="none" stroke-width="0" fill="#333333"></rect></g></g><g></g><g><g><text text-anchor="end" x="103" y="303.7" font-family="Arial" font-size="12" stroke="none" stroke-width="0" fill="#444444">0</text></g><g><text text-anchor="end" x="103" y="246.7" font-family="Arial" font-size="12" stroke="none" stroke-width="0" fill="#444444">50</text></g><g><text text-anchor="end" x="103" y="189.7" font-family="Arial" font-size="12" stroke="none" stroke-width="0" fill="#444444">100</text></g><g><text text-anchor="end" x="103" y="132.70000000000002" font-family="Arial" font-size="12" stroke="none" stroke-width="0" fill="#444444">150</text></g><g><text text-anchor="end" x="103" y="75.70000000000003" font-family="Arial" font-size="12" stroke="none" stroke-width="0" fill="#444444">200</text></g></g></g><g><g><text text-anchor="middle" x="45.7" y="185.5" font-family="Arial" font-size="12" font-style="italic" transform="rotate(-90 45.7 185.5)" stroke="none" stroke-width="0" fill="#222222">Cache Size</text><path d="M35.49999999999999,300L35.50000000000001,71L47.50000000000001,71L47.49999999999999,300Z" stroke="none" stroke-width="0" fill-opacity="0" fill="#ffffff"></path></g></g><g></g></svg>
